<?xml version="1.0" encoding="UTF-8" standalone="no"?>
<!-- Created with Inkscape (http://www.inkscape.org/) -->

<svg
   version="1.1"
   id="svg1"
   width="390.56262"
   height="473.32123"
   viewBox="0 0 390.56262 473.32123"
   sodipodi:docname="emptyshppingcart.svg"
   inkscape:version="1.2.2 (732a01da63, 2022-12-09)"
   xmlns:inkscape="http://www.inkscape.org/namespaces/inkscape"
   xmlns:sodipodi="http://sodipodi.sourceforge.net/DTD/sodipodi-0.dtd"
   xmlns="http://www.w3.org/2000/svg"
   xmlns:svg="http://www.w3.org/2000/svg">
  <defs
     id="defs1">
    <inkscape:path-effect
       effect="bend_path"
       id="path-effect4226"
       is_visible="true"
       lpeversion="1"
       bendpath="m -305.54688,207.93359 h 38.5879"
       prop_scale="1"
       scale_y_rel="false"
       vertical="false"
       hide_knot="false" />
    <inkscape:path-effect
       effect="fillet_chamfer"
       id="path-effect4230"
       is_visible="true"
       lpeversion="1"
       nodesatellites_param="F,0,0,1,0,2.2110001,0,1 @ F,0,0,1,0,0,0,1 @ F,0,0,1,0,0,0,1 @ F,0,0,1,0,0,0,1 @ F,0,0,1,0,2.2110001,0,1 @ F,0,0,1,0,2.0004286,0,1 @ F,0,0,1,0,0,0,1 @ F,0,0,1,0,0,0,1 @ F,0,0,1,0,0,0,1 @ F,0,0,1,0,2.0530715,0,1"
       unit="px"
       method="auto"
       mode="F"
       radius="0"
       chamfer_steps="1"
       flexible="false"
       use_knot_distance="true"
       apply_no_radius="true"
       apply_with_radius="true"
       only_selected="false"
       hide_knots="false" />
    <inkscape:path-effect
       effect="fillet_chamfer"
       id="path-effect7378"
       is_visible="true"
       lpeversion="1"
       nodesatellites_param="F,0,0,1,0,5.7380716,0,1 @ F,0,0,1,0,0,0,1 @ F,0,0,1,0,0,0,1 @ F,0,0,1,0,0,0,1 @ F,0,0,1,0,0,0,1 @ F,0,0,1,0,0,0,1 @ F,0,0,1,0,0,0,1 @ F,0,0,1,0,0,0,1 @ F,0,0,1,0,0,0,1 @ F,0,0,1,0,0,0,1 @ F,0,0,1,0,0,0,1 @ F,0,0,1,0,0,0,1 @ F,0,0,1,0,0,0,1 @ F,0,0,1,0,0,0,1 @ F,0,0,1,0,0.385448,0,1 @ F,0,0,1,0,13.925257,0,1 @ F,0,0,1,0,0,0,1 @ F,0,0,1,0,0,0,1 @ F,0,0,1,0,0,0,1 @ F,0,0,1,0,0,0,1 @ F,0,0,1,0,0,0,1 @ F,0,0,1,0,0,0,1 @ F,0,0,1,0,0,0,1 @ F,0,0,1,0,0,0,1 @ F,0,0,1,0,0,0,1 @ F,0,0,1,0,0,0,1 @ F,0,0,1,0,0,0,1 @ F,0,0,1,0,0,0,1 @ F,0,0,1,0,0,0,1 @ F,0,0,1,0,0,0,1 @ F,0,0,1,0,6.7299406,0,1 | F,0,0,1,0,0,0,1 @ F,0,0,1,0,0,0,1 @ F,0,0,1,0,0,0,1 @ F,0,0,1,0,0,0,1 @ F,0,0,1,0,0,0,1 @ F,0,0,1,0,0,0,1 @ F,0,0,1,0,0,0,1 @ F,0,0,1,0,0,0,1"
       unit="px"
       method="auto"
       mode="F"
       radius="0"
       chamfer_steps="1"
       flexible="false"
       use_knot_distance="true"
       apply_no_radius="true"
       apply_with_radius="true"
       only_selected="false"
       hide_knots="false" />
    <inkscape:path-effect
       effect="bspline"
       id="path-effect6947"
       is_visible="true"
       lpeversion="1"
       weight="33.333333"
       steps="2"
       helper_size="0"
       apply_no_weight="true"
       apply_with_weight="true"
       only_selected="false" />
    <rect
       x="-28845.537"
       y="-2108.062"
       width="1589.6578"
       height="279.97787"
       id="rect5232" />
    <clipPath
       clipPathUnits="userSpaceOnUse"
       id="clipPath3344">
      <rect
         style="display:inline;fill:#ffffff;stroke-width:0.629654"
         id="rect3346"
         width="2905.2415"
         height="3784.314"
         x="-29044.945"
         y="-2704.271" />
    </clipPath>
    <rect
       x="-28845.537"
       y="-2108.062"
       width="1589.6578"
       height="279.97787"
       id="rect5240" />
    <clipPath
       clipPathUnits="userSpaceOnUse"
       id="clipPath2150">
      <rect
         style="display:inline;fill:#ffffff;stroke-width:0.629654"
         id="rect2148"
         width="2905.2415"
         height="3784.314"
         x="-29044.945"
         y="-2704.271" />
    </clipPath>
    <rect
       x="-28845.537"
       y="-2108.062"
       width="1589.6578"
       height="279.97787"
       id="rect2154-0" />
    <clipPath
       clipPathUnits="userSpaceOnUse"
       id="clipPath3344-6">
      <rect
         style="display:inline;fill:#ffffff;stroke-width:0.629654"
         id="rect3346-8"
         width="2905.2415"
         height="3784.314"
         x="-29044.945"
         y="-2704.271" />
    </clipPath>
  </defs>
  <sodipodi:namedview
     id="namedview1"
     pagecolor="#ffffff"
     bordercolor="#cccccc"
     borderopacity="1"
     inkscape:showpageshadow="0"
     inkscape:pageopacity="1"
     inkscape:pagecheckerboard="0"
     inkscape:deskcolor="#d1d1d1"
     showgrid="false"
     inkscape:zoom="0.68875"
     inkscape:cx="296.18875"
     inkscape:cy="107.44102"
     inkscape:window-width="1366"
     inkscape:window-height="705"
     inkscape:window-x="-8"
     inkscape:window-y="-8"
     inkscape:window-maximized="1"
     inkscape:current-layer="g1" />
  <g
     inkscape:groupmode="layer"
     inkscape:label="Image"
     id="g1"
     transform="translate(-147.82753,32.460354)">
    <rect
       style="fill:#ffffff;stroke-width:1.889"
       id="rect2663"
       width="390.56262"
       height="473.32123"
       x="147.82753"
       y="-32.460354" />
    <g
       id="g2707"
       transform="translate(6.9927254,-4.1482206)">
      <g
         id="g2134"
         transform="translate(179.76257,21.260153)">
        <rect
           style="fill:#ae7413;fill-opacity:1;stroke:#a05a2c;stroke-width:2.12666;stroke-dasharray:none"
           id="rect4195"
           width="139.60181"
           height="20.087526"
           x="89.413078"
           y="115.90409"
           ry="0" />
        <ellipse
           style="fill:#b3b3b3;fill-opacity:1;stroke:none;stroke-width:1.49612;stroke-dasharray:none"
           id="path5708"
           cx="159.26109"
           cy="285.44763"
           rx="112.49014"
           ry="17.714466" />
        <rect
           style="fill:#ffbf57;fill-opacity:1;stroke:none;stroke-width:0.490579;stroke-dasharray:none"
           id="rect394"
           width="159.08508"
           height="158.05206"
           x="79.718529"
           y="134.85045"
           ry="2.8192966" />
        <circle
           style="fill:none;stroke:#000000;stroke-width:2.64474;stroke-dasharray:none"
           id="path1175"
           cx="119.03569"
           cy="153.20297"
           r="7.2279348" />
        <circle
           style="fill:none;stroke:#000000;stroke-width:2.64474;stroke-dasharray:none"
           id="circle2772"
           cx="203.37811"
           cy="153.20297"
           r="7.2279348" />
        <path
           style="color:#000000;fill:#ffffff;-inkscape-stroke:none"
           inkscape:path-effect="#path-effect4226;#path-effect4230"
           inkscape:original-d="m -305.54688,202.34961 v 16.75195 c 0,10.65323 8.63975,19.29297 19.29297,19.29297 10.65323,0 19.29493,-8.63974 19.29493,-19.29297 v -16.75195 h -4.12305 v 16.75195 c 0,8.4404 -6.73146,15.16992 -15.17188,15.16992 -8.4404,0 -15.16992,-6.72952 -15.16992,-15.16992 v -16.75195 z"
           transform="matrix(2.4528968,0,0,2.4528968,863.78065,-316.06277)"
           d="m -305.64688,192.12213 v 14.54095 c 0,10.65323 8.63975,19.29297 19.29297,19.29297 10.65323,0 19.29493,-8.63974 19.29493,-19.29297 v -14.54095 a 2.2110001,2.2110001 45 0 0 -2.211,-2.211 1.9567383,1.9567383 133.70597 0 0 -1.91205,2.00043 v 14.75152 c 0,8.4404 -6.73146,15.16992 -15.17188,15.16992 -8.4404,0 -15.16992,-6.72952 -15.16992,-15.16992 V 191.9642 a 2.0530715,2.0530715 45 0 0 -2.05307,-2.05307 2.1416503,2.1416503 133.11328 0 0 -2.06998,2.211 z"
           id="path4222"
           class="UnoptimicedTransforms" />
        <path
           style="fill:#c68c2b;fill-opacity:1;stroke:none;stroke-width:4.22634;stroke-dasharray:none"
           d="m 237.86338,135.56068 c -4.95233,-4.34484 -16.18792,-13.15994 -16.18792,-13.15994 l -0.17882,12.51427 z"
           id="path4247"
           sodipodi:nodetypes="cccc" />
        <path
           style="fill:#774b03;fill-opacity:1;stroke:none;stroke-width:4.22634;stroke-dasharray:none"
           d="m 230.12951,114.89569 -0.025,14.20117 -8.53066,-6.84739 z"
           id="path4249"
           sodipodi:nodetypes="cccc" />
        <path
           style="fill:#c68c2b;fill-opacity:1;stroke:none;stroke-width:4.22634;stroke-dasharray:none"
           d="m 80.518758,135.56068 c 4.952325,-4.34484 16.187917,-13.15994 16.187917,-13.15994 l 0.178816,12.51427 z"
           id="path5639"
           sodipodi:nodetypes="cccc" />
        <path
           style="fill:#774b03;fill-opacity:1;stroke:none;stroke-width:4.22634;stroke-dasharray:none"
           d="m 88.252619,114.89569 0.02502,14.20117 8.53066,-6.84739 z"
           id="path5641"
           sodipodi:nodetypes="cccc" />
      </g>
      <g
         id="g570"
         transform="matrix(0.85532319,0,0,0.85532319,214.90579,21.260159)">
        <path
           id="path6305"
           style="fill:#dd2d03;fill-opacity:1;stroke:none;stroke-width:1.94375;stroke-dasharray:none"
           d="M 248.7834,-6.710528e-6 A 46.06652,46.06652 0 0 0 202.71879,46.068976 a 46.06652,46.06652 0 0 0 7.3607,24.963376 l -6.43241,22.117133 18.39084,-9.707731 A 46.06652,46.06652 0 0 0 248.7834,92.133618 46.06652,46.06652 0 0 0 294.85244,46.068976 46.06652,46.06652 0 0 0 248.7834,-6.710528e-6 Z" />
        <g
           aria-label="?"
           id="text6815"
           style="font-weight:bold;font-size:88.9494px;font-family:Ebrima;-inkscape-font-specification:'Ebrima Bold';fill:#ffffff;stroke-width:6.42657"
           transform="translate(45.582043)">
          <path
             d="m 200.66623,56.596912 c 0,-1.331925 0.1303,-2.54803 0.39089,-3.648315 0.26059,-1.100285 0.65149,-2.128184 1.17268,-3.083695 0.52119,-0.984466 1.17267,-1.911022 1.95445,-2.779669 0.78178,-0.897601 1.69386,-1.780725 2.73624,-2.649372 1.10028,-0.926556 2.05579,-1.780725 2.86653,-2.562507 0.83969,-0.810737 1.54909,-1.606996 2.12818,-2.388778 0.5791,-0.810737 1.01342,-1.635951 1.30297,-2.475642 0.28955,-0.868647 0.43433,-1.824158 0.43433,-2.866534 0,-0.897601 -0.15925,-1.722815 -0.47776,-2.475642 -0.3185,-0.781782 -0.78178,-1.447744 -1.38983,-1.997887 -0.5791,-0.550143 -1.30297,-0.984467 -2.17162,-1.30297 -0.83969,-0.318504 -1.78073,-0.477756 -2.8231,-0.477756 -2.1469,0 -4.3723,0.431716 -6.67619,1.295147 -0.19934,0.0747 -0.52127,0.199204 -0.71871,0.278781 -3.96126,1.596562 -10.95353,-4.413497 -5.35617,-9.374189 1.11787,-0.990717 2.99998,-1.777707 6.10592,-2.580064 2.6349,-0.665963 5.35666,-0.998944 8.16528,-0.998944 2.69281,0 5.1974,0.304026 7.51379,0.912079 2.31639,0.579097 4.32876,1.505654 6.0371,2.779669 1.73729,1.274015 3.08369,2.909966 4.0392,4.907853 0.98447,1.968932 1.4767,4.343232 1.4767,7.122901 0,1.766248 -0.20268,3.373244 -0.60805,4.820988 -0.40537,1.418789 -0.99894,2.765191 -1.78073,4.039206 -0.78178,1.274015 -1.75177,2.504597 -2.90996,3.691748 -1.15819,1.158195 -2.49012,2.359823 -3.99578,3.604883 -1.01342,0.839691 -1.91102,1.621473 -2.6928,2.345345 -0.75283,0.723872 -1.38983,1.447744 -1.91102,2.171617 -0.49223,0.694917 -0.86865,1.447744 -1.12924,2.258481 -0.26059,0.781781 -0.39089,1.679383 -0.39089,2.692804 -0.0356,2.257195 -1.97073,3.952341 -5.68757,3.952341 -2.59179,0 -5.48605,-2.292086 -5.60484,-5.211879 z m 7.2532,24.235238 c -2.31639,0 -4.24189,-0.694917 -5.7765,-2.084752 -1.53461,-1.447744 -2.30191,-3.156082 -2.30191,-5.125014 0,-2.026842 0.7673,-3.720703 2.30191,-5.081582 1.53461,-1.36088 3.46011,-2.04132 5.7765,-2.04132 2.28743,0 4.18398,0.68044 5.68963,2.04132 1.50566,1.331925 2.25849,3.025785 2.25849,5.081582 0,2.084751 -0.73835,3.807567 -2.21505,5.168446 -1.50565,1.36088 -3.41668,2.04132 -5.73307,2.04132 z"
             id="path7373"
             inkscape:path-effect="#path-effect7378"
             inkscape:original-d="m 201.57831,61.808791 c -0.6772,-1.727833 -0.84124,-3.470665 -0.91208,-5.211879 0,-1.331925 0.1303,-2.54803 0.39089,-3.648315 0.26059,-1.100285 0.65149,-2.128184 1.17268,-3.083695 0.52119,-0.984466 1.17267,-1.911022 1.95445,-2.779669 0.78178,-0.897601 1.69386,-1.780725 2.73624,-2.649372 1.10028,-0.926556 2.05579,-1.780725 2.86653,-2.562507 0.83969,-0.810737 1.54909,-1.606996 2.12818,-2.388778 0.5791,-0.810737 1.01342,-1.635951 1.30297,-2.475642 0.28955,-0.868647 0.43433,-1.824158 0.43433,-2.866534 0,-0.897601 -0.15925,-1.722815 -0.47776,-2.475642 -0.3185,-0.781782 -0.78178,-1.447744 -1.38983,-1.997887 -0.5791,-0.550143 -1.30297,-0.984467 -2.17162,-1.30297 -0.83969,-0.318504 -1.78073,-0.477756 -2.8231,-0.477756 -2.25848,0 -4.60383,0.477756 -7.03604,1.433267 -2.43221,0.926556 -4.73412,2.345345 -6.90574,4.256368 0.28219,-10.821485 -3.20165,-13.357945 7.29663,-16.06996 2.6349,-0.665963 5.35666,-0.998944 8.16528,-0.998944 2.69281,0 5.1974,0.304026 7.51379,0.912079 2.31639,0.579097 4.32876,1.505654 6.0371,2.779669 1.73729,1.274015 3.08369,2.909966 4.0392,4.907853 0.98447,1.968932 1.4767,4.343232 1.4767,7.122901 0,1.766248 -0.20268,3.373244 -0.60805,4.820988 -0.40537,1.418789 -0.99894,2.765191 -1.78073,4.039206 -0.78178,1.274015 -1.75177,2.504597 -2.90996,3.691748 -1.15819,1.158195 -2.49012,2.359823 -3.99578,3.604883 -1.01342,0.839691 -1.91102,1.621473 -2.6928,2.345345 -0.75283,0.723872 -1.38983,1.447744 -1.91102,2.171617 -0.49223,0.694917 -0.86865,1.447744 -1.12924,2.258481 -0.26059,0.781781 -0.39089,1.679383 -0.39089,2.692804 -0.0233,1.47533 0.42144,2.723141 1.04237,3.952341 z m 6.34112,19.023359 c -2.31639,0 -4.24189,-0.694917 -5.7765,-2.084752 -1.53461,-1.447744 -2.30191,-3.156082 -2.30191,-5.125014 0,-2.026842 0.7673,-3.720703 2.30191,-5.081582 1.53461,-1.36088 3.46011,-2.04132 5.7765,-2.04132 2.28743,0 4.18398,0.68044 5.68963,2.04132 1.50566,1.331925 2.25849,3.025785 2.25849,5.081582 0,2.084751 -0.73835,3.807567 -2.21505,5.168446 -1.50565,1.36088 -3.41668,2.04132 -5.73307,2.04132 z"
             sodipodi:nodetypes="ccsccccccscccscccscccscsccccccccscssscscs" />
        </g>
      </g>
      <path
         style="fill:none;fill-opacity:1;stroke:#4d4d4d;stroke-width:1.989;stroke-dasharray:5.967, 5.967;stroke-dashoffset:0;stroke-opacity:1"
         d="m 231.9781,58.640308 c 7.79269,-3.409297 15.58422,-6.818088 23.25483,-8.156865 7.67062,-1.338778 15.21851,-0.608336 22.88804,5.11492 7.66952,5.723256 15.4609,16.436403 23.61821,23.86207 8.1573,7.425667 16.6791,11.564829 25.44447,13.877296 8.76537,2.312467 17.77414,2.799424 25.19969,1.581655 7.42556,-1.217768 13.2691,-4.139534 17.65112,-9.860551 4.38202,-5.721016 7.30379,-14.242842 5.96604,-21.30346 -1.33775,-7.060617 -6.9378,-12.660668 -11.92912,-15.826972 -4.99132,-3.166305 -9.37398,-3.896742 -13.87896,-3.775413 -4.50498,0.121329 -9.13112,1.095252 -13.27157,5.235256 -4.14045,4.140005 -7.79265,11.444416 -9.13139,18.993397 -1.33874,7.548982 -0.36482,15.340339 0.85274,22.766779 1.21757,7.42644 2.67845,14.48735 4.38306,20.93982 1.70461,6.45247 3.65245,12.296 5.59935,18.13669"
         id="path6945"
         inkscape:path-effect="#path-effect6947"
         inkscape:original-d="m 231.9781,58.640308 c 7.79398,-3.406338 15.58551,-6.815129 23.37459,-10.226373 7.55065,0.732926 15.09854,1.46335 22.64411,2.191369 7.79413,10.715995 15.58551,21.429145 23.37459,32.140037 8.5246,4.141766 17.0464,8.280931 25.56593,12.417741 9.01157,0.489427 18.02035,0.976376 27.02684,1.460897 5.84621,-2.919414 11.68975,-5.841182 17.53093,-8.765452 2.92435,-8.519695 5.84611,-17.041525 8.76548,-25.565954 -5.59783,-5.597805 -11.19787,-11.197867 -16.80048,-16.800479 -4.38036,-0.727995 -8.76302,-1.458443 -13.14819,-2.191345 -4.62386,0.976401 -9.25,1.950323 -13.87866,2.921818 -3.64989,7.307155 -7.3021,14.611562 -10.95682,21.913664 0.9764,7.794129 1.95032,15.585486 2.92182,23.374562 1.4634,7.06368 2.92426,14.124597 4.38273,21.183217 1.95037,5.84621 3.8982,11.68974 5.84364,17.53092" />
      <g
         id="g7534"
         transform="matrix(0.06168097,0,0,0.06168097,178.62958,49.730053)"
         style="fill:#e6e6e6">
        <g
           id="g7532"
           style="fill:#e6e6e6">
          <g
             id="g7530"
             style="fill:#e6e6e6">
            <g
               id="g7528"
               style="fill:#e6e6e6">
              <polygon
                 fill="#ffffff"
                 points="757.45,460.068 112.636,713.695 788.684,232.108 928.061,278.266 "
                 id="polygon7526"
                 style="fill:#e6e6e6" />
            </g>
          </g>
        </g>
      </g>
      <g
         id="g7546"
         transform="matrix(0.06168097,0,0,0.06168097,178.62958,49.730053)">
        <g
           id="g7544">
          <g
             id="g7542">
            <g
               id="g7540">
              <polygon
                 fill="#50bfd8"
                 points="752.266,258.068 748.045,228.805 112.636,713.695 "
                 id="polygon7538" />
            </g>
          </g>
        </g>
      </g>
      <g
         id="g7558"
         transform="matrix(0.06168097,0,0,0.06168097,178.62958,49.730053)"
         style="fill:#e6e6e6">
        <g
           id="g7556"
           style="fill:#e6e6e6">
          <g
             id="g7554"
             style="fill:#e6e6e6">
            <g
               id="g7552"
               style="fill:#e6e6e6">
              <polygon
                 fill="#ffffff"
                 points="375.155,335.302 112.636,713.695 748.045,228.805 596.194,192.024 "
                 id="polygon7550"
                 style="fill:#e6e6e6" />
            </g>
          </g>
        </g>
      </g>
      <g
         id="g7568"
         transform="matrix(0.06168097,0,0,0.06168097,178.62958,49.730053)">
        <g
           id="g7566">
          <g
             id="g7564">
            <polygon
               fill="#50bfd8"
               points="817.627,515.74 112.636,713.695 755.124,460.409 804.918,410.547 "
               id="polygon7562" />
          </g>
        </g>
      </g>
      <text
         xml:space="preserve"
         transform="matrix(0.31644674,0,0,0.34301413,9392.5632,1100.5337)"
         id="text5230"
         style="font-style:normal;font-variant:normal;font-weight:normal;font-stretch:normal;font-size:47.5166px;font-family:'Gill Sans MT';-inkscape-font-specification:'Gill Sans MT';text-align:justify;white-space:pre;shape-inside:url(#rect5232);display:inline;fill:#808080;stroke:none;stroke-width:1.24"
         x="0"
         y="0"
         clip-path="url(#clipPath3344)"><tspan
           x="-28845.537"
           y="-2066.4729"
           id="tspan2770">Let's go to buy something.</tspan></text>
      <text
         xml:space="preserve"
         transform="matrix(0.31644674,0,0,0.34301413,9352.2224,1083.4646)"
         id="text5238"
         style="font-style:normal;font-variant:normal;font-weight:normal;font-stretch:normal;font-size:47.5166px;font-family:'Gill Sans MT';-inkscape-font-specification:'Gill Sans MT';text-align:justify;white-space:pre;shape-inside:url(#rect5240);display:inline;fill:#ffffff;stroke:none;stroke-width:1.24"
         x="0"
         y="0"
         clip-path="url(#clipPath3344)"
         inkscape:label="text5238"><tspan
           x="-28845.537"
           y="-2066.4729"
           id="tspan2774"><tspan
             style="fill:#808080"
             id="tspan2772">You have no item in your shopping cart. </tspan></tspan></text>
      <text
         xml:space="preserve"
         transform="matrix(0.56512559,0,0,0.61257091,16492.228,1612.1262)"
         id="text1680"
         style="font-style:normal;font-variant:normal;font-weight:normal;font-stretch:normal;font-size:53.3333px;font-family:'Berlin Sans FB';-inkscape-font-specification:'Berlin Sans FB';text-align:justify;white-space:pre;shape-inside:url(#rect2154-0);display:inline;fill:#000000;stroke:none;stroke-width:1.24"
         x="0"
         y="0"
         clip-path="url(#clipPath3344-6)"><tspan
           x="-28845.537"
           y="-2057.9189"
           id="tspan2776">Your cart is now empty. </tspan></text>
    </g>
  </g>
</svg>
